%TF.GenerationSoftware,KiCad,Pcbnew,8.0.8*%
%TF.CreationDate,2025-02-13T16:42:56-05:00*%
%TF.ProjectId,Dise_o Sensor UV,44697365-f16f-4205-9365-6e736f722055,rev?*%
%TF.SameCoordinates,Original*%
%TF.FileFunction,Soldermask,Bot*%
%TF.FilePolarity,Negative*%
%FSLAX46Y46*%
G04 Gerber Fmt 4.6, Leading zero omitted, Abs format (unit mm)*
G04 Created by KiCad (PCBNEW 8.0.8) date 2025-02-13 16:42:56*
%MOMM*%
%LPD*%
G01*
G04 APERTURE LIST*
%ADD10C,1.600000*%
%ADD11O,1.600000X1.600000*%
%ADD12O,1.300000X1.700000*%
%ADD13R,1.700000X1.700000*%
%ADD14O,1.700000X1.700000*%
%ADD15C,3.200000*%
%ADD16R,3.500000X3.500000*%
%ADD17C,3.500000*%
%ADD18R,2.200000X2.200000*%
%ADD19O,2.200000X2.200000*%
%ADD20O,1.050000X1.500000*%
%ADD21R,1.050000X1.500000*%
%ADD22C,1.524000*%
%ADD23R,2.500000X2.500000*%
%ADD24C,2.500000*%
%ADD25O,1.500000X1.800000*%
G04 APERTURE END LIST*
D10*
%TO.C,R3*%
X241420000Y-96500000D03*
D11*
X251580000Y-96500000D03*
%TD*%
D12*
%TO.C,Led5*%
X260960000Y-76500000D03*
X258420000Y-76500000D03*
%TD*%
D13*
%TO.C,RI1*%
X216500000Y-119620000D03*
D14*
X216500000Y-117080000D03*
X216500000Y-114540000D03*
X216500000Y-112000000D03*
X216500000Y-109460000D03*
X216500000Y-106920000D03*
X216500000Y-104380000D03*
X216500000Y-101840000D03*
X216500000Y-99300000D03*
X216500000Y-96760000D03*
X216500000Y-94220000D03*
X216500000Y-91680000D03*
X216500000Y-89140000D03*
X216500000Y-86600000D03*
X216500000Y-84060000D03*
%TD*%
D10*
%TO.C,R2*%
X241420000Y-106500000D03*
D11*
X251580000Y-106500000D03*
%TD*%
D10*
%TO.C,R4*%
X241420000Y-86500000D03*
D11*
X251580000Y-86500000D03*
%TD*%
D15*
%TO.C,BT1*%
X134500000Y-110000000D03*
X134500000Y-54390000D03*
D16*
X134500000Y-118645000D03*
D17*
X134500000Y-46645000D03*
%TD*%
D10*
%TO.C,R_BaseT1*%
X229500000Y-45500000D03*
D11*
X219340000Y-45500000D03*
%TD*%
D10*
%TO.C,R5*%
X241420000Y-76500000D03*
D11*
X251580000Y-76500000D03*
%TD*%
D15*
%TO.C,*%
X119000000Y-36500000D03*
%TD*%
%TO.C,*%
X268000000Y-131500000D03*
%TD*%
%TO.C,REF\u002A\u002A*%
X119500000Y-131500000D03*
%TD*%
D14*
%TO.C,SUV1*%
X252040000Y-130500000D03*
X249500000Y-130500000D03*
X246960000Y-130500000D03*
%TD*%
D10*
%TO.C,R1*%
X241420000Y-116500000D03*
D11*
X251580000Y-116500000D03*
%TD*%
D18*
%TO.C,D1*%
X257500000Y-46500000D03*
D19*
X247340000Y-46500000D03*
%TD*%
D13*
%TO.C,Pin_Extra1*%
X175980000Y-54500000D03*
D14*
X178520000Y-54500000D03*
X181060000Y-54500000D03*
X183600000Y-54500000D03*
X186140000Y-54500000D03*
X188680000Y-54500000D03*
X191220000Y-54500000D03*
X193760000Y-54500000D03*
X196300000Y-54500000D03*
X198840000Y-54500000D03*
X201380000Y-54500000D03*
X203920000Y-54500000D03*
X206460000Y-54500000D03*
X209000000Y-54500000D03*
X211540000Y-54500000D03*
X214080000Y-54500000D03*
X216620000Y-54500000D03*
X219160000Y-54500000D03*
X221700000Y-54500000D03*
X224240000Y-54500000D03*
X226780000Y-54500000D03*
%TD*%
%TO.C,LE1*%
X191000000Y-119620000D03*
X191000000Y-117080000D03*
X191000000Y-114540000D03*
X191000000Y-112000000D03*
X191000000Y-109460000D03*
X191000000Y-106920000D03*
X191000000Y-104380000D03*
X191000000Y-101840000D03*
X191000000Y-99300000D03*
X191000000Y-96760000D03*
X191000000Y-94220000D03*
X191000000Y-91680000D03*
X191000000Y-89140000D03*
X191000000Y-86600000D03*
D13*
X191000000Y-84060000D03*
%TD*%
D20*
%TO.C,Q1*%
X244920000Y-62500000D03*
X242730000Y-62500000D03*
D21*
X240540000Y-62500000D03*
%TD*%
D12*
%TO.C,Led3*%
X258420000Y-96500000D03*
X260960000Y-96500000D03*
%TD*%
D22*
%TO.C,Modulo1*%
X176930000Y-134350000D03*
X176930000Y-131810000D03*
X176930000Y-129270000D03*
X176930000Y-126730000D03*
X176930000Y-124190000D03*
X176930000Y-121650000D03*
%TD*%
D12*
%TO.C,Led2*%
X258420000Y-106500000D03*
X260960000Y-106500000D03*
%TD*%
%TO.C,Led1*%
X258420000Y-116500000D03*
X260960000Y-116500000D03*
%TD*%
%TO.C,Led4*%
X258420000Y-86475000D03*
X260960000Y-86475000D03*
%TD*%
D23*
%TO.C,ALI1*%
X158500000Y-45000000D03*
D24*
X153420000Y-45000000D03*
%TD*%
D25*
%TO.C,Buzzer1*%
X259000000Y-63000000D03*
X256460000Y-63000000D03*
%TD*%
D15*
%TO.C,*%
X267500000Y-37000000D03*
%TD*%
M02*
