%TF.GenerationSoftware,KiCad,Pcbnew,8.0.8*%
%TF.CreationDate,2025-02-13T16:42:55-05:00*%
%TF.ProjectId,Dise_o Sensor UV,44697365-f16f-4205-9365-6e736f722055,rev?*%
%TF.SameCoordinates,Original*%
%TF.FileFunction,Copper,L1,Top*%
%TF.FilePolarity,Positive*%
%FSLAX46Y46*%
G04 Gerber Fmt 4.6, Leading zero omitted, Abs format (unit mm)*
G04 Created by KiCad (PCBNEW 8.0.8) date 2025-02-13 16:42:55*
%MOMM*%
%LPD*%
G01*
G04 APERTURE LIST*
%TA.AperFunction,ComponentPad*%
%ADD10C,1.600000*%
%TD*%
%TA.AperFunction,ComponentPad*%
%ADD11O,1.600000X1.600000*%
%TD*%
%TA.AperFunction,ComponentPad*%
%ADD12O,1.300000X1.700000*%
%TD*%
%TA.AperFunction,ComponentPad*%
%ADD13R,1.700000X1.700000*%
%TD*%
%TA.AperFunction,ComponentPad*%
%ADD14O,1.700000X1.700000*%
%TD*%
%TA.AperFunction,ComponentPad*%
%ADD15R,3.500000X3.500000*%
%TD*%
%TA.AperFunction,ComponentPad*%
%ADD16C,3.500000*%
%TD*%
%TA.AperFunction,ComponentPad*%
%ADD17R,2.200000X2.200000*%
%TD*%
%TA.AperFunction,ComponentPad*%
%ADD18O,2.200000X2.200000*%
%TD*%
%TA.AperFunction,ComponentPad*%
%ADD19O,1.050000X1.500000*%
%TD*%
%TA.AperFunction,ComponentPad*%
%ADD20R,1.050000X1.500000*%
%TD*%
%TA.AperFunction,ComponentPad*%
%ADD21C,1.524000*%
%TD*%
%TA.AperFunction,ComponentPad*%
%ADD22R,2.500000X2.500000*%
%TD*%
%TA.AperFunction,ComponentPad*%
%ADD23C,2.500000*%
%TD*%
%TA.AperFunction,ComponentPad*%
%ADD24O,1.500000X1.800000*%
%TD*%
%TA.AperFunction,ViaPad*%
%ADD25C,2.000000*%
%TD*%
%TA.AperFunction,Conductor*%
%ADD26C,1.000000*%
%TD*%
%TA.AperFunction,Conductor*%
%ADD27C,0.600000*%
%TD*%
G04 APERTURE END LIST*
D10*
%TO.P,R3,1*%
%TO.N,Net-(RI1-Pin_8)*%
X241420000Y-96500000D03*
D11*
%TO.P,R3,2*%
%TO.N,Net-(Led3-Pin_1)*%
X251580000Y-96500000D03*
%TD*%
D12*
%TO.P,Led5,2,Pin_2*%
%TO.N,GND*%
X260960000Y-76500000D03*
%TO.P,Led5,1,Pin_1*%
%TO.N,Net-(Led5-Pin_1)*%
X258420000Y-76500000D03*
%TD*%
D13*
%TO.P,RI1,1,Pin_1*%
%TO.N,Net-(RI1-Pin_1)*%
X216500000Y-119620000D03*
D14*
%TO.P,RI1,2,Pin_2*%
%TO.N,GND*%
X216500000Y-117080000D03*
%TO.P,RI1,3,Pin_3*%
%TO.N,Net-(RI1-Pin_3)*%
X216500000Y-114540000D03*
%TO.P,RI1,4,Pin_4*%
%TO.N,Net-(RI1-Pin_4)*%
X216500000Y-112000000D03*
%TO.P,RI1,5,Pin_5*%
%TO.N,Net-(RI1-Pin_5)*%
X216500000Y-109460000D03*
%TO.P,RI1,6,Pin_6*%
%TO.N,Net-(Pin_Extra1-Pin_21)*%
X216500000Y-106920000D03*
%TO.P,RI1,7,Pin_7*%
%TO.N,Net-(Pin_Extra1-Pin_20)*%
X216500000Y-104380000D03*
%TO.P,RI1,8,Pin_8*%
%TO.N,Net-(RI1-Pin_8)*%
X216500000Y-101840000D03*
%TO.P,RI1,9,Pin_9*%
%TO.N,Net-(RI1-Pin_9)*%
X216500000Y-99300000D03*
%TO.P,RI1,10,Pin_10*%
%TO.N,Net-(RI1-Pin_10)*%
X216500000Y-96760000D03*
%TO.P,RI1,11,Pin_11*%
%TO.N,Net-(Pin_Extra1-Pin_19)*%
X216500000Y-94220000D03*
%TO.P,RI1,12,Pin_12*%
%TO.N,Net-(Pin_Extra1-Pin_18)*%
X216500000Y-91680000D03*
%TO.P,RI1,13,Pin_13*%
%TO.N,Net-(Pin_Extra1-Pin_17)*%
X216500000Y-89140000D03*
%TO.P,RI1,14,Pin_14*%
%TO.N,Net-(Pin_Extra1-Pin_16)*%
X216500000Y-86600000D03*
%TO.P,RI1,15,Pin_15*%
%TO.N,Net-(Pin_Extra1-Pin_15)*%
X216500000Y-84060000D03*
%TD*%
D10*
%TO.P,R2,1*%
%TO.N,Net-(RI1-Pin_5)*%
X241420000Y-106500000D03*
D11*
%TO.P,R2,2*%
%TO.N,Net-(Led2-Pin_1)*%
X251580000Y-106500000D03*
%TD*%
D10*
%TO.P,R4,1*%
%TO.N,Net-(RI1-Pin_9)*%
X241420000Y-86500000D03*
D11*
%TO.P,R4,2*%
%TO.N,Net-(Led4-Pin_1)*%
X251580000Y-86500000D03*
%TD*%
D15*
%TO.P,BT1,1,+*%
%TO.N,Net-(BT1-+)*%
X134500000Y-118645000D03*
D16*
%TO.P,BT1,2,-*%
%TO.N,GND*%
X134500000Y-46645000D03*
%TD*%
D10*
%TO.P,R_BaseT1,1*%
%TO.N,Net-(Q1-B)*%
X229500000Y-45500000D03*
D11*
%TO.P,R_BaseT1,2*%
%TO.N,Net-(LE1-Pin_13)*%
X219340000Y-45500000D03*
%TD*%
D10*
%TO.P,R5,1*%
%TO.N,Net-(RI1-Pin_10)*%
X241420000Y-76500000D03*
D11*
%TO.P,R5,2*%
%TO.N,Net-(Led5-Pin_1)*%
X251580000Y-76500000D03*
%TD*%
D14*
%TO.P,SUV1,1,Pin_1*%
%TO.N,Net-(RI1-Pin_3)*%
X252040000Y-130500000D03*
%TO.P,SUV1,2,Pin_2*%
%TO.N,GND*%
X249500000Y-130500000D03*
%TO.P,SUV1,3,Pin_3*%
%TO.N,Net-(RI1-Pin_1)*%
X246960000Y-130500000D03*
%TD*%
D10*
%TO.P,R1,1*%
%TO.N,Net-(RI1-Pin_4)*%
X241420000Y-116500000D03*
D11*
%TO.P,R1,2*%
%TO.N,Net-(Led1-Pin_1)*%
X251580000Y-116500000D03*
%TD*%
D17*
%TO.P,D1,1,K*%
%TO.N,Net-(Buzzer1-Pin_1)*%
X257500000Y-46500000D03*
D18*
%TO.P,D1,2,A*%
%TO.N,Net-(Buzzer1-Pin_2)*%
X247340000Y-46500000D03*
%TD*%
D13*
%TO.P,Pin_Extra1,1,Pin_1*%
%TO.N,GND*%
X175980000Y-54500000D03*
D14*
%TO.P,Pin_Extra1,2,Pin_2*%
%TO.N,Net-(Buzzer1-Pin_1)*%
X178520000Y-54500000D03*
%TO.P,Pin_Extra1,3,Pin_3*%
%TO.N,Net-(LE1-Pin_1)*%
X181060000Y-54500000D03*
%TO.P,Pin_Extra1,4,Pin_4*%
%TO.N,Net-(LE1-Pin_2)*%
X183600000Y-54500000D03*
%TO.P,Pin_Extra1,5,Pin_5*%
%TO.N,Net-(LE1-Pin_3)*%
X186140000Y-54500000D03*
%TO.P,Pin_Extra1,6,Pin_6*%
%TO.N,Net-(LE1-Pin_4)*%
X188680000Y-54500000D03*
%TO.P,Pin_Extra1,7,Pin_7*%
%TO.N,Net-(LE1-Pin_5)*%
X191220000Y-54500000D03*
%TO.P,Pin_Extra1,8,Pin_8*%
%TO.N,Net-(LE1-Pin_6)*%
X193760000Y-54500000D03*
%TO.P,Pin_Extra1,9,Pin_9*%
%TO.N,Net-(LE1-Pin_7)*%
X196300000Y-54500000D03*
%TO.P,Pin_Extra1,10,Pin_10*%
%TO.N,Net-(LE1-Pin_8)*%
X198840000Y-54500000D03*
%TO.P,Pin_Extra1,11,Pin_11*%
%TO.N,Net-(LE1-Pin_9)*%
X201380000Y-54500000D03*
%TO.P,Pin_Extra1,12,Pin_12*%
%TO.N,Net-(LE1-Pin_10)*%
X203920000Y-54500000D03*
%TO.P,Pin_Extra1,13,Pin_13*%
%TO.N,Net-(LE1-Pin_11)*%
X206460000Y-54500000D03*
%TO.P,Pin_Extra1,14,Pin_14*%
%TO.N,Net-(LE1-Pin_12)*%
X209000000Y-54500000D03*
%TO.P,Pin_Extra1,15,Pin_15*%
%TO.N,Net-(Pin_Extra1-Pin_15)*%
X211540000Y-54500000D03*
%TO.P,Pin_Extra1,16,Pin_16*%
%TO.N,Net-(Pin_Extra1-Pin_16)*%
X214080000Y-54500000D03*
%TO.P,Pin_Extra1,17,Pin_17*%
%TO.N,Net-(Pin_Extra1-Pin_17)*%
X216620000Y-54500000D03*
%TO.P,Pin_Extra1,18,Pin_18*%
%TO.N,Net-(Pin_Extra1-Pin_18)*%
X219160000Y-54500000D03*
%TO.P,Pin_Extra1,19,Pin_19*%
%TO.N,Net-(Pin_Extra1-Pin_19)*%
X221700000Y-54500000D03*
%TO.P,Pin_Extra1,20,Pin_20*%
%TO.N,Net-(Pin_Extra1-Pin_20)*%
X224240000Y-54500000D03*
%TO.P,Pin_Extra1,21,Pin_21*%
%TO.N,Net-(Pin_Extra1-Pin_21)*%
X226780000Y-54500000D03*
%TD*%
%TO.P,LE1,15,Pin_15*%
%TO.N,Net-(Buzzer1-Pin_1)*%
X191000000Y-119620000D03*
%TO.P,LE1,14,Pin_14*%
%TO.N,GND*%
X191000000Y-117080000D03*
%TO.P,LE1,13,Pin_13*%
%TO.N,Net-(LE1-Pin_13)*%
X191000000Y-114540000D03*
%TO.P,LE1,12,Pin_12*%
%TO.N,Net-(LE1-Pin_12)*%
X191000000Y-112000000D03*
%TO.P,LE1,11,Pin_11*%
%TO.N,Net-(LE1-Pin_11)*%
X191000000Y-109460000D03*
%TO.P,LE1,10,Pin_10*%
%TO.N,Net-(LE1-Pin_10)*%
X191000000Y-106920000D03*
%TO.P,LE1,9,Pin_9*%
%TO.N,Net-(LE1-Pin_9)*%
X191000000Y-104380000D03*
%TO.P,LE1,8,Pin_8*%
%TO.N,Net-(LE1-Pin_8)*%
X191000000Y-101840000D03*
%TO.P,LE1,7,Pin_7*%
%TO.N,Net-(LE1-Pin_7)*%
X191000000Y-99300000D03*
%TO.P,LE1,6,Pin_6*%
%TO.N,Net-(LE1-Pin_6)*%
X191000000Y-96760000D03*
%TO.P,LE1,5,Pin_5*%
%TO.N,Net-(LE1-Pin_5)*%
X191000000Y-94220000D03*
%TO.P,LE1,4,Pin_4*%
%TO.N,Net-(LE1-Pin_4)*%
X191000000Y-91680000D03*
%TO.P,LE1,3,Pin_3*%
%TO.N,Net-(LE1-Pin_3)*%
X191000000Y-89140000D03*
%TO.P,LE1,2,Pin_2*%
%TO.N,Net-(LE1-Pin_2)*%
X191000000Y-86600000D03*
D13*
%TO.P,LE1,1,Pin_1*%
%TO.N,Net-(LE1-Pin_1)*%
X191000000Y-84060000D03*
%TD*%
D19*
%TO.P,Q1,3,C*%
%TO.N,Net-(Buzzer1-Pin_2)*%
X244920000Y-62500000D03*
%TO.P,Q1,2,B*%
%TO.N,Net-(Q1-B)*%
X242730000Y-62500000D03*
D20*
%TO.P,Q1,1,E*%
%TO.N,GND*%
X240540000Y-62500000D03*
%TD*%
D12*
%TO.P,Led3,1,Pin_1*%
%TO.N,Net-(Led3-Pin_1)*%
X258420000Y-96500000D03*
%TO.P,Led3,2,Pin_2*%
%TO.N,GND*%
X260960000Y-96500000D03*
%TD*%
D21*
%TO.P,Modulo1,1,VIN*%
%TO.N,Net-(ALI1-Pin_2)*%
X176930000Y-134350000D03*
%TO.P,Modulo1,2,GND*%
%TO.N,GND*%
X176930000Y-131810000D03*
%TO.P,Modulo1,3,GND*%
X176930000Y-129270000D03*
%TO.P,Modulo1,4,BAT*%
%TO.N,Net-(BT1-+)*%
X176930000Y-126730000D03*
%TO.P,Modulo1,5,GND*%
%TO.N,GND*%
X176930000Y-124190000D03*
%TO.P,Modulo1,6,OUT-5V*%
%TO.N,Net-(Buzzer1-Pin_1)*%
X176930000Y-121650000D03*
%TD*%
D12*
%TO.P,Led2,1,Pin_1*%
%TO.N,Net-(Led2-Pin_1)*%
X258420000Y-106500000D03*
%TO.P,Led2,2,Pin_2*%
%TO.N,GND*%
X260960000Y-106500000D03*
%TD*%
%TO.P,Led1,1,Pin_1*%
%TO.N,Net-(Led1-Pin_1)*%
X258420000Y-116500000D03*
%TO.P,Led1,2,Pin_2*%
%TO.N,GND*%
X260960000Y-116500000D03*
%TD*%
%TO.P,Led4,1,Pin_1*%
%TO.N,Net-(Led4-Pin_1)*%
X258420000Y-86475000D03*
%TO.P,Led4,2,Pin_2*%
%TO.N,GND*%
X260960000Y-86475000D03*
%TD*%
D22*
%TO.P,ALI1,1,Pin_1*%
%TO.N,GND*%
X158500000Y-45000000D03*
D23*
%TO.P,ALI1,2,Pin_2*%
%TO.N,Net-(ALI1-Pin_2)*%
X153420000Y-45000000D03*
%TD*%
D24*
%TO.P,Buzzer1,1,Pin_1*%
%TO.N,Net-(Buzzer1-Pin_1)*%
X259000000Y-63000000D03*
%TO.P,Buzzer1,2,Pin_2*%
%TO.N,Net-(Buzzer1-Pin_2)*%
X256460000Y-63000000D03*
%TD*%
D25*
%TO.N,Net-(Buzzer1-Pin_1)*%
X162000000Y-62000000D03*
X173500000Y-62000000D03*
%TO.N,Net-(LE1-Pin_2)*%
X175000000Y-81000000D03*
X186500000Y-82500000D03*
%TO.N,Net-(LE1-Pin_4)*%
X188680000Y-62000000D03*
X188680000Y-70320000D03*
%TO.N,Net-(LE1-Pin_3)*%
X185000000Y-74000000D03*
X186000000Y-62000000D03*
%TO.N,Net-(LE1-Pin_1)*%
X190000000Y-78500000D03*
X171000000Y-78500000D03*
%TO.N,Net-(Pin_Extra1-Pin_20)*%
X229000000Y-103000000D03*
X230000000Y-78500000D03*
%TO.N,Net-(Pin_Extra1-Pin_21)*%
X232000000Y-104000000D03*
X232500000Y-78500000D03*
%TD*%
D26*
%TO.N,Net-(Buzzer1-Pin_1)*%
X162000000Y-62000000D02*
X173500000Y-62000000D01*
D27*
%TO.N,Net-(LE1-Pin_4)*%
X188680000Y-70320000D02*
X188680000Y-62000000D01*
%TO.N,Net-(LE1-Pin_1)*%
X171000000Y-78500000D02*
X190000000Y-78500000D01*
%TO.N,Net-(Pin_Extra1-Pin_20)*%
X230000000Y-102000000D02*
X229000000Y-103000000D01*
X230000000Y-78500000D02*
X230000000Y-102000000D01*
%TO.N,Net-(LE1-Pin_2)*%
X175000000Y-81000000D02*
X176500000Y-82500000D01*
X176500000Y-82500000D02*
X186500000Y-82500000D01*
%TO.N,Net-(Pin_Extra1-Pin_21)*%
X232500000Y-78500000D02*
X232500000Y-103500000D01*
X232500000Y-103500000D02*
X232000000Y-104000000D01*
%TO.N,Net-(LE1-Pin_3)*%
X185000000Y-63000000D02*
X186000000Y-62000000D01*
X185000000Y-74000000D02*
X185000000Y-63000000D01*
%TD*%
M02*
