M48
; DRILL file {KiCad 8.0.8} date 2025-03-04T15:37:17-0500
; FORMAT={-:-/ absolute / inch / decimal}
; #@! TF.CreationDate,2025-03-04T15:37:17-05:00
; #@! TF.GenerationSoftware,Kicad,Pcbnew,8.0.8
; #@! TF.FileFunction,Plated,1,2,PTH
FMAT,2
INCH
; #@! TA.AperFunction,Plated,PTH,ComponentDrill
T1C0.0295
; #@! TA.AperFunction,Plated,PTH,ComponentDrill
T2C0.0300
; #@! TA.AperFunction,Plated,PTH,ComponentDrill
T3C0.0315
; #@! TA.AperFunction,Plated,PTH,ViaDrill
T4C0.0394
; #@! TA.AperFunction,Plated,PTH,ComponentDrill
T5C0.0394
; #@! TA.AperFunction,Plated,PTH,ComponentDrill
T6C0.0433
; #@! TA.AperFunction,Plated,PTH,ComponentDrill
T7C0.0512
; #@! TA.AperFunction,Plated,PTH,ComponentDrill
T8C0.0787
%
G90
G05
T1
X9.4701Y-2.4606
X9.5563Y-2.4606
X9.6425Y-2.4606
T2
X6.9657Y-4.7894
X6.9657Y-4.8894
X6.9657Y-4.9894
X6.9657Y-5.0894
X6.9657Y-5.1894
X6.9657Y-5.2894
T3
X8.6354Y-1.7913
X9.0354Y-1.7913
X9.5047Y-3.0118
X9.5047Y-3.4055
X9.5047Y-3.7992
X9.5047Y-4.1929
X9.5047Y-4.5866
X9.9047Y-3.0118
X9.9047Y-3.4055
X9.9047Y-3.7992
X9.9047Y-4.1929
X9.9047Y-4.5866
X10.174Y-3.0118
X10.174Y-3.4045
X10.174Y-3.7992
X10.174Y-4.1929
X10.174Y-4.5866
X10.274Y-3.0118
X10.274Y-3.4045
X10.274Y-3.7992
X10.274Y-4.1929
X10.274Y-4.5866
T4
X6.378Y-2.4409
X6.7323Y-3.0906
X6.8307Y-2.4409
X6.8898Y-3.189
X7.2835Y-2.9134
X7.3228Y-2.4409
X7.3425Y-3.248
X7.4283Y-2.4409
X7.4283Y-2.7685
X7.4803Y-3.0906
X9.0157Y-4.0551
X9.0551Y-3.0906
X9.1339Y-4.0945
X9.1535Y-3.0906
T5
X6.9283Y-2.1457
X7.0283Y-2.1457
X7.1283Y-2.1457
X7.2283Y-2.1457
X7.3283Y-2.1457
X7.4283Y-2.1457
X7.5197Y-3.3094
X7.5197Y-3.4094
X7.5197Y-3.5094
X7.5197Y-3.6094
X7.5197Y-3.7094
X7.5197Y-3.8094
X7.5197Y-3.9094
X7.5197Y-4.0094
X7.5197Y-4.1094
X7.5197Y-4.2094
X7.5197Y-4.3094
X7.5197Y-4.4094
X7.5197Y-4.5094
X7.5197Y-4.6094
X7.5197Y-4.7094
X7.5283Y-2.1457
X7.6283Y-2.1457
X7.7283Y-2.1457
X7.8283Y-2.1457
X7.9283Y-2.1457
X8.0283Y-2.1457
X8.1283Y-2.1457
X8.2283Y-2.1457
X8.3283Y-2.1457
X8.4283Y-2.1457
X8.5236Y-3.3094
X8.5236Y-3.4094
X8.5236Y-3.5094
X8.5236Y-3.6094
X8.5236Y-3.7094
X8.5236Y-3.8094
X8.5236Y-3.9094
X8.5236Y-4.0094
X8.5236Y-4.1094
X8.5236Y-4.2094
X8.5236Y-4.3094
X8.5236Y-4.4094
X8.5236Y-4.5094
X8.5236Y-4.6094
X8.5236Y-4.7094
X8.5283Y-2.1457
X8.6283Y-2.1457
X8.7283Y-2.1457
X8.8283Y-2.1457
X8.9283Y-2.1457
X9.7228Y-5.1378
X9.8228Y-5.1378
X9.9228Y-5.1378
X10.0969Y-2.4803
X10.1969Y-2.4803
T6
X9.7378Y-1.8307
X10.1378Y-1.8307
T7
X6.0402Y-1.7717
X6.2402Y-1.7717
T8
X5.2953Y-1.8364
X5.2953Y-4.6711
M30
