%TF.GenerationSoftware,KiCad,Pcbnew,8.0.8*%
%TF.CreationDate,2025-02-13T16:42:56-05:00*%
%TF.ProjectId,Dise_o Sensor UV,44697365-f16f-4205-9365-6e736f722055,rev?*%
%TF.SameCoordinates,Original*%
%TF.FileFunction,Legend,Top*%
%TF.FilePolarity,Positive*%
%FSLAX46Y46*%
G04 Gerber Fmt 4.6, Leading zero omitted, Abs format (unit mm)*
G04 Created by KiCad (PCBNEW 8.0.8) date 2025-02-13 16:42:56*
%MOMM*%
%LPD*%
G01*
G04 APERTURE LIST*
%ADD10C,0.150000*%
%ADD11C,0.120000*%
G04 APERTURE END LIST*
D10*
X246333333Y-94584819D02*
X246000000Y-94108628D01*
X245761905Y-94584819D02*
X245761905Y-93584819D01*
X245761905Y-93584819D02*
X246142857Y-93584819D01*
X246142857Y-93584819D02*
X246238095Y-93632438D01*
X246238095Y-93632438D02*
X246285714Y-93680057D01*
X246285714Y-93680057D02*
X246333333Y-93775295D01*
X246333333Y-93775295D02*
X246333333Y-93918152D01*
X246333333Y-93918152D02*
X246285714Y-94013390D01*
X246285714Y-94013390D02*
X246238095Y-94061009D01*
X246238095Y-94061009D02*
X246142857Y-94108628D01*
X246142857Y-94108628D02*
X245761905Y-94108628D01*
X246666667Y-93584819D02*
X247285714Y-93584819D01*
X247285714Y-93584819D02*
X246952381Y-93965771D01*
X246952381Y-93965771D02*
X247095238Y-93965771D01*
X247095238Y-93965771D02*
X247190476Y-94013390D01*
X247190476Y-94013390D02*
X247238095Y-94061009D01*
X247238095Y-94061009D02*
X247285714Y-94156247D01*
X247285714Y-94156247D02*
X247285714Y-94394342D01*
X247285714Y-94394342D02*
X247238095Y-94489580D01*
X247238095Y-94489580D02*
X247190476Y-94537200D01*
X247190476Y-94537200D02*
X247095238Y-94584819D01*
X247095238Y-94584819D02*
X246809524Y-94584819D01*
X246809524Y-94584819D02*
X246714286Y-94537200D01*
X246714286Y-94537200D02*
X246666667Y-94489580D01*
X265622380Y-76954819D02*
X265146190Y-76954819D01*
X265146190Y-76954819D02*
X265146190Y-75954819D01*
X266336666Y-76907200D02*
X266241428Y-76954819D01*
X266241428Y-76954819D02*
X266050952Y-76954819D01*
X266050952Y-76954819D02*
X265955714Y-76907200D01*
X265955714Y-76907200D02*
X265908095Y-76811961D01*
X265908095Y-76811961D02*
X265908095Y-76431009D01*
X265908095Y-76431009D02*
X265955714Y-76335771D01*
X265955714Y-76335771D02*
X266050952Y-76288152D01*
X266050952Y-76288152D02*
X266241428Y-76288152D01*
X266241428Y-76288152D02*
X266336666Y-76335771D01*
X266336666Y-76335771D02*
X266384285Y-76431009D01*
X266384285Y-76431009D02*
X266384285Y-76526247D01*
X266384285Y-76526247D02*
X265908095Y-76621485D01*
X267241428Y-76954819D02*
X267241428Y-75954819D01*
X267241428Y-76907200D02*
X267146190Y-76954819D01*
X267146190Y-76954819D02*
X266955714Y-76954819D01*
X266955714Y-76954819D02*
X266860476Y-76907200D01*
X266860476Y-76907200D02*
X266812857Y-76859580D01*
X266812857Y-76859580D02*
X266765238Y-76764342D01*
X266765238Y-76764342D02*
X266765238Y-76478628D01*
X266765238Y-76478628D02*
X266812857Y-76383390D01*
X266812857Y-76383390D02*
X266860476Y-76335771D01*
X266860476Y-76335771D02*
X266955714Y-76288152D01*
X266955714Y-76288152D02*
X267146190Y-76288152D01*
X267146190Y-76288152D02*
X267241428Y-76335771D01*
X268193809Y-75954819D02*
X267717619Y-75954819D01*
X267717619Y-75954819D02*
X267670000Y-76431009D01*
X267670000Y-76431009D02*
X267717619Y-76383390D01*
X267717619Y-76383390D02*
X267812857Y-76335771D01*
X267812857Y-76335771D02*
X268050952Y-76335771D01*
X268050952Y-76335771D02*
X268146190Y-76383390D01*
X268146190Y-76383390D02*
X268193809Y-76431009D01*
X268193809Y-76431009D02*
X268241428Y-76526247D01*
X268241428Y-76526247D02*
X268241428Y-76764342D01*
X268241428Y-76764342D02*
X268193809Y-76859580D01*
X268193809Y-76859580D02*
X268146190Y-76907200D01*
X268146190Y-76907200D02*
X268050952Y-76954819D01*
X268050952Y-76954819D02*
X267812857Y-76954819D01*
X267812857Y-76954819D02*
X267717619Y-76907200D01*
X267717619Y-76907200D02*
X267670000Y-76859580D01*
X214595238Y-123014819D02*
X214261905Y-122538628D01*
X214023810Y-123014819D02*
X214023810Y-122014819D01*
X214023810Y-122014819D02*
X214404762Y-122014819D01*
X214404762Y-122014819D02*
X214500000Y-122062438D01*
X214500000Y-122062438D02*
X214547619Y-122110057D01*
X214547619Y-122110057D02*
X214595238Y-122205295D01*
X214595238Y-122205295D02*
X214595238Y-122348152D01*
X214595238Y-122348152D02*
X214547619Y-122443390D01*
X214547619Y-122443390D02*
X214500000Y-122491009D01*
X214500000Y-122491009D02*
X214404762Y-122538628D01*
X214404762Y-122538628D02*
X214023810Y-122538628D01*
X215023810Y-123014819D02*
X215023810Y-122014819D01*
X216023809Y-123014819D02*
X215452381Y-123014819D01*
X215738095Y-123014819D02*
X215738095Y-122014819D01*
X215738095Y-122014819D02*
X215642857Y-122157676D01*
X215642857Y-122157676D02*
X215547619Y-122252914D01*
X215547619Y-122252914D02*
X215452381Y-122300533D01*
X246333333Y-104584819D02*
X246000000Y-104108628D01*
X245761905Y-104584819D02*
X245761905Y-103584819D01*
X245761905Y-103584819D02*
X246142857Y-103584819D01*
X246142857Y-103584819D02*
X246238095Y-103632438D01*
X246238095Y-103632438D02*
X246285714Y-103680057D01*
X246285714Y-103680057D02*
X246333333Y-103775295D01*
X246333333Y-103775295D02*
X246333333Y-103918152D01*
X246333333Y-103918152D02*
X246285714Y-104013390D01*
X246285714Y-104013390D02*
X246238095Y-104061009D01*
X246238095Y-104061009D02*
X246142857Y-104108628D01*
X246142857Y-104108628D02*
X245761905Y-104108628D01*
X246714286Y-103680057D02*
X246761905Y-103632438D01*
X246761905Y-103632438D02*
X246857143Y-103584819D01*
X246857143Y-103584819D02*
X247095238Y-103584819D01*
X247095238Y-103584819D02*
X247190476Y-103632438D01*
X247190476Y-103632438D02*
X247238095Y-103680057D01*
X247238095Y-103680057D02*
X247285714Y-103775295D01*
X247285714Y-103775295D02*
X247285714Y-103870533D01*
X247285714Y-103870533D02*
X247238095Y-104013390D01*
X247238095Y-104013390D02*
X246666667Y-104584819D01*
X246666667Y-104584819D02*
X247285714Y-104584819D01*
X246333333Y-84584819D02*
X246000000Y-84108628D01*
X245761905Y-84584819D02*
X245761905Y-83584819D01*
X245761905Y-83584819D02*
X246142857Y-83584819D01*
X246142857Y-83584819D02*
X246238095Y-83632438D01*
X246238095Y-83632438D02*
X246285714Y-83680057D01*
X246285714Y-83680057D02*
X246333333Y-83775295D01*
X246333333Y-83775295D02*
X246333333Y-83918152D01*
X246333333Y-83918152D02*
X246285714Y-84013390D01*
X246285714Y-84013390D02*
X246238095Y-84061009D01*
X246238095Y-84061009D02*
X246142857Y-84108628D01*
X246142857Y-84108628D02*
X245761905Y-84108628D01*
X247190476Y-83918152D02*
X247190476Y-84584819D01*
X246952381Y-83537200D02*
X246714286Y-84251485D01*
X246714286Y-84251485D02*
X247333333Y-84251485D01*
X145714285Y-82076009D02*
X145857142Y-82123628D01*
X145857142Y-82123628D02*
X145904761Y-82171247D01*
X145904761Y-82171247D02*
X145952380Y-82266485D01*
X145952380Y-82266485D02*
X145952380Y-82409342D01*
X145952380Y-82409342D02*
X145904761Y-82504580D01*
X145904761Y-82504580D02*
X145857142Y-82552200D01*
X145857142Y-82552200D02*
X145761904Y-82599819D01*
X145761904Y-82599819D02*
X145380952Y-82599819D01*
X145380952Y-82599819D02*
X145380952Y-81599819D01*
X145380952Y-81599819D02*
X145714285Y-81599819D01*
X145714285Y-81599819D02*
X145809523Y-81647438D01*
X145809523Y-81647438D02*
X145857142Y-81695057D01*
X145857142Y-81695057D02*
X145904761Y-81790295D01*
X145904761Y-81790295D02*
X145904761Y-81885533D01*
X145904761Y-81885533D02*
X145857142Y-81980771D01*
X145857142Y-81980771D02*
X145809523Y-82028390D01*
X145809523Y-82028390D02*
X145714285Y-82076009D01*
X145714285Y-82076009D02*
X145380952Y-82076009D01*
X146238095Y-81599819D02*
X146809523Y-81599819D01*
X146523809Y-82599819D02*
X146523809Y-81599819D01*
X147666666Y-82599819D02*
X147095238Y-82599819D01*
X147380952Y-82599819D02*
X147380952Y-81599819D01*
X147380952Y-81599819D02*
X147285714Y-81742676D01*
X147285714Y-81742676D02*
X147190476Y-81837914D01*
X147190476Y-81837914D02*
X147095238Y-81885533D01*
X221705713Y-48954819D02*
X221372380Y-48478628D01*
X221134285Y-48954819D02*
X221134285Y-47954819D01*
X221134285Y-47954819D02*
X221515237Y-47954819D01*
X221515237Y-47954819D02*
X221610475Y-48002438D01*
X221610475Y-48002438D02*
X221658094Y-48050057D01*
X221658094Y-48050057D02*
X221705713Y-48145295D01*
X221705713Y-48145295D02*
X221705713Y-48288152D01*
X221705713Y-48288152D02*
X221658094Y-48383390D01*
X221658094Y-48383390D02*
X221610475Y-48431009D01*
X221610475Y-48431009D02*
X221515237Y-48478628D01*
X221515237Y-48478628D02*
X221134285Y-48478628D01*
X221896190Y-49050057D02*
X222658094Y-49050057D01*
X223229523Y-48431009D02*
X223372380Y-48478628D01*
X223372380Y-48478628D02*
X223419999Y-48526247D01*
X223419999Y-48526247D02*
X223467618Y-48621485D01*
X223467618Y-48621485D02*
X223467618Y-48764342D01*
X223467618Y-48764342D02*
X223419999Y-48859580D01*
X223419999Y-48859580D02*
X223372380Y-48907200D01*
X223372380Y-48907200D02*
X223277142Y-48954819D01*
X223277142Y-48954819D02*
X222896190Y-48954819D01*
X222896190Y-48954819D02*
X222896190Y-47954819D01*
X222896190Y-47954819D02*
X223229523Y-47954819D01*
X223229523Y-47954819D02*
X223324761Y-48002438D01*
X223324761Y-48002438D02*
X223372380Y-48050057D01*
X223372380Y-48050057D02*
X223419999Y-48145295D01*
X223419999Y-48145295D02*
X223419999Y-48240533D01*
X223419999Y-48240533D02*
X223372380Y-48335771D01*
X223372380Y-48335771D02*
X223324761Y-48383390D01*
X223324761Y-48383390D02*
X223229523Y-48431009D01*
X223229523Y-48431009D02*
X222896190Y-48431009D01*
X224324761Y-48954819D02*
X224324761Y-48431009D01*
X224324761Y-48431009D02*
X224277142Y-48335771D01*
X224277142Y-48335771D02*
X224181904Y-48288152D01*
X224181904Y-48288152D02*
X223991428Y-48288152D01*
X223991428Y-48288152D02*
X223896190Y-48335771D01*
X224324761Y-48907200D02*
X224229523Y-48954819D01*
X224229523Y-48954819D02*
X223991428Y-48954819D01*
X223991428Y-48954819D02*
X223896190Y-48907200D01*
X223896190Y-48907200D02*
X223848571Y-48811961D01*
X223848571Y-48811961D02*
X223848571Y-48716723D01*
X223848571Y-48716723D02*
X223896190Y-48621485D01*
X223896190Y-48621485D02*
X223991428Y-48573866D01*
X223991428Y-48573866D02*
X224229523Y-48573866D01*
X224229523Y-48573866D02*
X224324761Y-48526247D01*
X224753333Y-48907200D02*
X224848571Y-48954819D01*
X224848571Y-48954819D02*
X225039047Y-48954819D01*
X225039047Y-48954819D02*
X225134285Y-48907200D01*
X225134285Y-48907200D02*
X225181904Y-48811961D01*
X225181904Y-48811961D02*
X225181904Y-48764342D01*
X225181904Y-48764342D02*
X225134285Y-48669104D01*
X225134285Y-48669104D02*
X225039047Y-48621485D01*
X225039047Y-48621485D02*
X224896190Y-48621485D01*
X224896190Y-48621485D02*
X224800952Y-48573866D01*
X224800952Y-48573866D02*
X224753333Y-48478628D01*
X224753333Y-48478628D02*
X224753333Y-48431009D01*
X224753333Y-48431009D02*
X224800952Y-48335771D01*
X224800952Y-48335771D02*
X224896190Y-48288152D01*
X224896190Y-48288152D02*
X225039047Y-48288152D01*
X225039047Y-48288152D02*
X225134285Y-48335771D01*
X225991428Y-48907200D02*
X225896190Y-48954819D01*
X225896190Y-48954819D02*
X225705714Y-48954819D01*
X225705714Y-48954819D02*
X225610476Y-48907200D01*
X225610476Y-48907200D02*
X225562857Y-48811961D01*
X225562857Y-48811961D02*
X225562857Y-48431009D01*
X225562857Y-48431009D02*
X225610476Y-48335771D01*
X225610476Y-48335771D02*
X225705714Y-48288152D01*
X225705714Y-48288152D02*
X225896190Y-48288152D01*
X225896190Y-48288152D02*
X225991428Y-48335771D01*
X225991428Y-48335771D02*
X226039047Y-48431009D01*
X226039047Y-48431009D02*
X226039047Y-48526247D01*
X226039047Y-48526247D02*
X225562857Y-48621485D01*
X226324762Y-47954819D02*
X226896190Y-47954819D01*
X226610476Y-48954819D02*
X226610476Y-47954819D01*
X227753333Y-48954819D02*
X227181905Y-48954819D01*
X227467619Y-48954819D02*
X227467619Y-47954819D01*
X227467619Y-47954819D02*
X227372381Y-48097676D01*
X227372381Y-48097676D02*
X227277143Y-48192914D01*
X227277143Y-48192914D02*
X227181905Y-48240533D01*
X246333333Y-74584819D02*
X246000000Y-74108628D01*
X245761905Y-74584819D02*
X245761905Y-73584819D01*
X245761905Y-73584819D02*
X246142857Y-73584819D01*
X246142857Y-73584819D02*
X246238095Y-73632438D01*
X246238095Y-73632438D02*
X246285714Y-73680057D01*
X246285714Y-73680057D02*
X246333333Y-73775295D01*
X246333333Y-73775295D02*
X246333333Y-73918152D01*
X246333333Y-73918152D02*
X246285714Y-74013390D01*
X246285714Y-74013390D02*
X246238095Y-74061009D01*
X246238095Y-74061009D02*
X246142857Y-74108628D01*
X246142857Y-74108628D02*
X245761905Y-74108628D01*
X247238095Y-73584819D02*
X246761905Y-73584819D01*
X246761905Y-73584819D02*
X246714286Y-74061009D01*
X246714286Y-74061009D02*
X246761905Y-74013390D01*
X246761905Y-74013390D02*
X246857143Y-73965771D01*
X246857143Y-73965771D02*
X247095238Y-73965771D01*
X247095238Y-73965771D02*
X247190476Y-74013390D01*
X247190476Y-74013390D02*
X247238095Y-74061009D01*
X247238095Y-74061009D02*
X247285714Y-74156247D01*
X247285714Y-74156247D02*
X247285714Y-74394342D01*
X247285714Y-74394342D02*
X247238095Y-74489580D01*
X247238095Y-74489580D02*
X247190476Y-74537200D01*
X247190476Y-74537200D02*
X247095238Y-74584819D01*
X247095238Y-74584819D02*
X246857143Y-74584819D01*
X246857143Y-74584819D02*
X246761905Y-74537200D01*
X246761905Y-74537200D02*
X246714286Y-74489580D01*
X118166666Y-127754819D02*
X117833333Y-127278628D01*
X117595238Y-127754819D02*
X117595238Y-126754819D01*
X117595238Y-126754819D02*
X117976190Y-126754819D01*
X117976190Y-126754819D02*
X118071428Y-126802438D01*
X118071428Y-126802438D02*
X118119047Y-126850057D01*
X118119047Y-126850057D02*
X118166666Y-126945295D01*
X118166666Y-126945295D02*
X118166666Y-127088152D01*
X118166666Y-127088152D02*
X118119047Y-127183390D01*
X118119047Y-127183390D02*
X118071428Y-127231009D01*
X118071428Y-127231009D02*
X117976190Y-127278628D01*
X117976190Y-127278628D02*
X117595238Y-127278628D01*
X118595238Y-127231009D02*
X118928571Y-127231009D01*
X119071428Y-127754819D02*
X118595238Y-127754819D01*
X118595238Y-127754819D02*
X118595238Y-126754819D01*
X118595238Y-126754819D02*
X119071428Y-126754819D01*
X119833333Y-127231009D02*
X119500000Y-127231009D01*
X119500000Y-127754819D02*
X119500000Y-126754819D01*
X119500000Y-126754819D02*
X119976190Y-126754819D01*
X120500000Y-126754819D02*
X120500000Y-126992914D01*
X120261905Y-126897676D02*
X120500000Y-126992914D01*
X120500000Y-126992914D02*
X120738095Y-126897676D01*
X120357143Y-127183390D02*
X120500000Y-126992914D01*
X120500000Y-126992914D02*
X120642857Y-127183390D01*
X121261905Y-126754819D02*
X121261905Y-126992914D01*
X121023810Y-126897676D02*
X121261905Y-126992914D01*
X121261905Y-126992914D02*
X121500000Y-126897676D01*
X121119048Y-127183390D02*
X121261905Y-126992914D01*
X121261905Y-126992914D02*
X121404762Y-127183390D01*
X247745714Y-133407200D02*
X247888571Y-133454819D01*
X247888571Y-133454819D02*
X248126666Y-133454819D01*
X248126666Y-133454819D02*
X248221904Y-133407200D01*
X248221904Y-133407200D02*
X248269523Y-133359580D01*
X248269523Y-133359580D02*
X248317142Y-133264342D01*
X248317142Y-133264342D02*
X248317142Y-133169104D01*
X248317142Y-133169104D02*
X248269523Y-133073866D01*
X248269523Y-133073866D02*
X248221904Y-133026247D01*
X248221904Y-133026247D02*
X248126666Y-132978628D01*
X248126666Y-132978628D02*
X247936190Y-132931009D01*
X247936190Y-132931009D02*
X247840952Y-132883390D01*
X247840952Y-132883390D02*
X247793333Y-132835771D01*
X247793333Y-132835771D02*
X247745714Y-132740533D01*
X247745714Y-132740533D02*
X247745714Y-132645295D01*
X247745714Y-132645295D02*
X247793333Y-132550057D01*
X247793333Y-132550057D02*
X247840952Y-132502438D01*
X247840952Y-132502438D02*
X247936190Y-132454819D01*
X247936190Y-132454819D02*
X248174285Y-132454819D01*
X248174285Y-132454819D02*
X248317142Y-132502438D01*
X248745714Y-132454819D02*
X248745714Y-133264342D01*
X248745714Y-133264342D02*
X248793333Y-133359580D01*
X248793333Y-133359580D02*
X248840952Y-133407200D01*
X248840952Y-133407200D02*
X248936190Y-133454819D01*
X248936190Y-133454819D02*
X249126666Y-133454819D01*
X249126666Y-133454819D02*
X249221904Y-133407200D01*
X249221904Y-133407200D02*
X249269523Y-133359580D01*
X249269523Y-133359580D02*
X249317142Y-133264342D01*
X249317142Y-133264342D02*
X249317142Y-132454819D01*
X249650476Y-132454819D02*
X249983809Y-133454819D01*
X249983809Y-133454819D02*
X250317142Y-132454819D01*
X251174285Y-133454819D02*
X250602857Y-133454819D01*
X250888571Y-133454819D02*
X250888571Y-132454819D01*
X250888571Y-132454819D02*
X250793333Y-132597676D01*
X250793333Y-132597676D02*
X250698095Y-132692914D01*
X250698095Y-132692914D02*
X250602857Y-132740533D01*
X246333333Y-114584819D02*
X246000000Y-114108628D01*
X245761905Y-114584819D02*
X245761905Y-113584819D01*
X245761905Y-113584819D02*
X246142857Y-113584819D01*
X246142857Y-113584819D02*
X246238095Y-113632438D01*
X246238095Y-113632438D02*
X246285714Y-113680057D01*
X246285714Y-113680057D02*
X246333333Y-113775295D01*
X246333333Y-113775295D02*
X246333333Y-113918152D01*
X246333333Y-113918152D02*
X246285714Y-114013390D01*
X246285714Y-114013390D02*
X246238095Y-114061009D01*
X246238095Y-114061009D02*
X246142857Y-114108628D01*
X246142857Y-114108628D02*
X245761905Y-114108628D01*
X247285714Y-114584819D02*
X246714286Y-114584819D01*
X247000000Y-114584819D02*
X247000000Y-113584819D01*
X247000000Y-113584819D02*
X246904762Y-113727676D01*
X246904762Y-113727676D02*
X246809524Y-113822914D01*
X246809524Y-113822914D02*
X246714286Y-113870533D01*
X251681905Y-49424819D02*
X251681905Y-48424819D01*
X251681905Y-48424819D02*
X251920000Y-48424819D01*
X251920000Y-48424819D02*
X252062857Y-48472438D01*
X252062857Y-48472438D02*
X252158095Y-48567676D01*
X252158095Y-48567676D02*
X252205714Y-48662914D01*
X252205714Y-48662914D02*
X252253333Y-48853390D01*
X252253333Y-48853390D02*
X252253333Y-48996247D01*
X252253333Y-48996247D02*
X252205714Y-49186723D01*
X252205714Y-49186723D02*
X252158095Y-49281961D01*
X252158095Y-49281961D02*
X252062857Y-49377200D01*
X252062857Y-49377200D02*
X251920000Y-49424819D01*
X251920000Y-49424819D02*
X251681905Y-49424819D01*
X253205714Y-49424819D02*
X252634286Y-49424819D01*
X252920000Y-49424819D02*
X252920000Y-48424819D01*
X252920000Y-48424819D02*
X252824762Y-48567676D01*
X252824762Y-48567676D02*
X252729524Y-48662914D01*
X252729524Y-48662914D02*
X252634286Y-48710533D01*
X257238095Y-49054819D02*
X257238095Y-48054819D01*
X257809523Y-49054819D02*
X257380952Y-48483390D01*
X257809523Y-48054819D02*
X257238095Y-48626247D01*
X199785714Y-51954819D02*
X199785714Y-50954819D01*
X199785714Y-50954819D02*
X200166666Y-50954819D01*
X200166666Y-50954819D02*
X200261904Y-51002438D01*
X200261904Y-51002438D02*
X200309523Y-51050057D01*
X200309523Y-51050057D02*
X200357142Y-51145295D01*
X200357142Y-51145295D02*
X200357142Y-51288152D01*
X200357142Y-51288152D02*
X200309523Y-51383390D01*
X200309523Y-51383390D02*
X200261904Y-51431009D01*
X200261904Y-51431009D02*
X200166666Y-51478628D01*
X200166666Y-51478628D02*
X199785714Y-51478628D01*
X200785714Y-51954819D02*
X200785714Y-51288152D01*
X200785714Y-50954819D02*
X200738095Y-51002438D01*
X200738095Y-51002438D02*
X200785714Y-51050057D01*
X200785714Y-51050057D02*
X200833333Y-51002438D01*
X200833333Y-51002438D02*
X200785714Y-50954819D01*
X200785714Y-50954819D02*
X200785714Y-51050057D01*
X201261904Y-51288152D02*
X201261904Y-51954819D01*
X201261904Y-51383390D02*
X201309523Y-51335771D01*
X201309523Y-51335771D02*
X201404761Y-51288152D01*
X201404761Y-51288152D02*
X201547618Y-51288152D01*
X201547618Y-51288152D02*
X201642856Y-51335771D01*
X201642856Y-51335771D02*
X201690475Y-51431009D01*
X201690475Y-51431009D02*
X201690475Y-51954819D01*
X201928571Y-52050057D02*
X202690475Y-52050057D01*
X202928571Y-51431009D02*
X203261904Y-51431009D01*
X203404761Y-51954819D02*
X202928571Y-51954819D01*
X202928571Y-51954819D02*
X202928571Y-50954819D01*
X202928571Y-50954819D02*
X203404761Y-50954819D01*
X203738095Y-51954819D02*
X204261904Y-51288152D01*
X203738095Y-51288152D02*
X204261904Y-51954819D01*
X204500000Y-51288152D02*
X204880952Y-51288152D01*
X204642857Y-50954819D02*
X204642857Y-51811961D01*
X204642857Y-51811961D02*
X204690476Y-51907200D01*
X204690476Y-51907200D02*
X204785714Y-51954819D01*
X204785714Y-51954819D02*
X204880952Y-51954819D01*
X205214286Y-51954819D02*
X205214286Y-51288152D01*
X205214286Y-51478628D02*
X205261905Y-51383390D01*
X205261905Y-51383390D02*
X205309524Y-51335771D01*
X205309524Y-51335771D02*
X205404762Y-51288152D01*
X205404762Y-51288152D02*
X205500000Y-51288152D01*
X206261905Y-51954819D02*
X206261905Y-51431009D01*
X206261905Y-51431009D02*
X206214286Y-51335771D01*
X206214286Y-51335771D02*
X206119048Y-51288152D01*
X206119048Y-51288152D02*
X205928572Y-51288152D01*
X205928572Y-51288152D02*
X205833334Y-51335771D01*
X206261905Y-51907200D02*
X206166667Y-51954819D01*
X206166667Y-51954819D02*
X205928572Y-51954819D01*
X205928572Y-51954819D02*
X205833334Y-51907200D01*
X205833334Y-51907200D02*
X205785715Y-51811961D01*
X205785715Y-51811961D02*
X205785715Y-51716723D01*
X205785715Y-51716723D02*
X205833334Y-51621485D01*
X205833334Y-51621485D02*
X205928572Y-51573866D01*
X205928572Y-51573866D02*
X206166667Y-51573866D01*
X206166667Y-51573866D02*
X206261905Y-51526247D01*
X207261905Y-51954819D02*
X206690477Y-51954819D01*
X206976191Y-51954819D02*
X206976191Y-50954819D01*
X206976191Y-50954819D02*
X206880953Y-51097676D01*
X206880953Y-51097676D02*
X206785715Y-51192914D01*
X206785715Y-51192914D02*
X206690477Y-51240533D01*
X190380952Y-81744819D02*
X189904762Y-81744819D01*
X189904762Y-81744819D02*
X189904762Y-80744819D01*
X190714286Y-81221009D02*
X191047619Y-81221009D01*
X191190476Y-81744819D02*
X190714286Y-81744819D01*
X190714286Y-81744819D02*
X190714286Y-80744819D01*
X190714286Y-80744819D02*
X191190476Y-80744819D01*
X192142857Y-81744819D02*
X191571429Y-81744819D01*
X191857143Y-81744819D02*
X191857143Y-80744819D01*
X191857143Y-80744819D02*
X191761905Y-80887676D01*
X191761905Y-80887676D02*
X191666667Y-80982914D01*
X191666667Y-80982914D02*
X191571429Y-81030533D01*
X242404761Y-67050057D02*
X242309523Y-67002438D01*
X242309523Y-67002438D02*
X242214285Y-66907200D01*
X242214285Y-66907200D02*
X242071428Y-66764342D01*
X242071428Y-66764342D02*
X241976190Y-66716723D01*
X241976190Y-66716723D02*
X241880952Y-66716723D01*
X241928571Y-66954819D02*
X241833333Y-66907200D01*
X241833333Y-66907200D02*
X241738095Y-66811961D01*
X241738095Y-66811961D02*
X241690476Y-66621485D01*
X241690476Y-66621485D02*
X241690476Y-66288152D01*
X241690476Y-66288152D02*
X241738095Y-66097676D01*
X241738095Y-66097676D02*
X241833333Y-66002438D01*
X241833333Y-66002438D02*
X241928571Y-65954819D01*
X241928571Y-65954819D02*
X242119047Y-65954819D01*
X242119047Y-65954819D02*
X242214285Y-66002438D01*
X242214285Y-66002438D02*
X242309523Y-66097676D01*
X242309523Y-66097676D02*
X242357142Y-66288152D01*
X242357142Y-66288152D02*
X242357142Y-66621485D01*
X242357142Y-66621485D02*
X242309523Y-66811961D01*
X242309523Y-66811961D02*
X242214285Y-66907200D01*
X242214285Y-66907200D02*
X242119047Y-66954819D01*
X242119047Y-66954819D02*
X241928571Y-66954819D01*
X243309523Y-66954819D02*
X242738095Y-66954819D01*
X243023809Y-66954819D02*
X243023809Y-65954819D01*
X243023809Y-65954819D02*
X242928571Y-66097676D01*
X242928571Y-66097676D02*
X242833333Y-66192914D01*
X242833333Y-66192914D02*
X242738095Y-66240533D01*
X265622380Y-96954819D02*
X265146190Y-96954819D01*
X265146190Y-96954819D02*
X265146190Y-95954819D01*
X266336666Y-96907200D02*
X266241428Y-96954819D01*
X266241428Y-96954819D02*
X266050952Y-96954819D01*
X266050952Y-96954819D02*
X265955714Y-96907200D01*
X265955714Y-96907200D02*
X265908095Y-96811961D01*
X265908095Y-96811961D02*
X265908095Y-96431009D01*
X265908095Y-96431009D02*
X265955714Y-96335771D01*
X265955714Y-96335771D02*
X266050952Y-96288152D01*
X266050952Y-96288152D02*
X266241428Y-96288152D01*
X266241428Y-96288152D02*
X266336666Y-96335771D01*
X266336666Y-96335771D02*
X266384285Y-96431009D01*
X266384285Y-96431009D02*
X266384285Y-96526247D01*
X266384285Y-96526247D02*
X265908095Y-96621485D01*
X267241428Y-96954819D02*
X267241428Y-95954819D01*
X267241428Y-96907200D02*
X267146190Y-96954819D01*
X267146190Y-96954819D02*
X266955714Y-96954819D01*
X266955714Y-96954819D02*
X266860476Y-96907200D01*
X266860476Y-96907200D02*
X266812857Y-96859580D01*
X266812857Y-96859580D02*
X266765238Y-96764342D01*
X266765238Y-96764342D02*
X266765238Y-96478628D01*
X266765238Y-96478628D02*
X266812857Y-96383390D01*
X266812857Y-96383390D02*
X266860476Y-96335771D01*
X266860476Y-96335771D02*
X266955714Y-96288152D01*
X266955714Y-96288152D02*
X267146190Y-96288152D01*
X267146190Y-96288152D02*
X267241428Y-96335771D01*
X267622381Y-95954819D02*
X268241428Y-95954819D01*
X268241428Y-95954819D02*
X267908095Y-96335771D01*
X267908095Y-96335771D02*
X268050952Y-96335771D01*
X268050952Y-96335771D02*
X268146190Y-96383390D01*
X268146190Y-96383390D02*
X268193809Y-96431009D01*
X268193809Y-96431009D02*
X268241428Y-96526247D01*
X268241428Y-96526247D02*
X268241428Y-96764342D01*
X268241428Y-96764342D02*
X268193809Y-96859580D01*
X268193809Y-96859580D02*
X268146190Y-96907200D01*
X268146190Y-96907200D02*
X268050952Y-96954819D01*
X268050952Y-96954819D02*
X267765238Y-96954819D01*
X267765238Y-96954819D02*
X267670000Y-96907200D01*
X267670000Y-96907200D02*
X267622381Y-96859580D01*
X162619047Y-118954819D02*
X162619047Y-117954819D01*
X162619047Y-117954819D02*
X162952380Y-118669104D01*
X162952380Y-118669104D02*
X163285713Y-117954819D01*
X163285713Y-117954819D02*
X163285713Y-118954819D01*
X163904761Y-118954819D02*
X163809523Y-118907200D01*
X163809523Y-118907200D02*
X163761904Y-118859580D01*
X163761904Y-118859580D02*
X163714285Y-118764342D01*
X163714285Y-118764342D02*
X163714285Y-118478628D01*
X163714285Y-118478628D02*
X163761904Y-118383390D01*
X163761904Y-118383390D02*
X163809523Y-118335771D01*
X163809523Y-118335771D02*
X163904761Y-118288152D01*
X163904761Y-118288152D02*
X164047618Y-118288152D01*
X164047618Y-118288152D02*
X164142856Y-118335771D01*
X164142856Y-118335771D02*
X164190475Y-118383390D01*
X164190475Y-118383390D02*
X164238094Y-118478628D01*
X164238094Y-118478628D02*
X164238094Y-118764342D01*
X164238094Y-118764342D02*
X164190475Y-118859580D01*
X164190475Y-118859580D02*
X164142856Y-118907200D01*
X164142856Y-118907200D02*
X164047618Y-118954819D01*
X164047618Y-118954819D02*
X163904761Y-118954819D01*
X165095237Y-118954819D02*
X165095237Y-117954819D01*
X165095237Y-118907200D02*
X164999999Y-118954819D01*
X164999999Y-118954819D02*
X164809523Y-118954819D01*
X164809523Y-118954819D02*
X164714285Y-118907200D01*
X164714285Y-118907200D02*
X164666666Y-118859580D01*
X164666666Y-118859580D02*
X164619047Y-118764342D01*
X164619047Y-118764342D02*
X164619047Y-118478628D01*
X164619047Y-118478628D02*
X164666666Y-118383390D01*
X164666666Y-118383390D02*
X164714285Y-118335771D01*
X164714285Y-118335771D02*
X164809523Y-118288152D01*
X164809523Y-118288152D02*
X164999999Y-118288152D01*
X164999999Y-118288152D02*
X165095237Y-118335771D01*
X165999999Y-118288152D02*
X165999999Y-118954819D01*
X165571428Y-118288152D02*
X165571428Y-118811961D01*
X165571428Y-118811961D02*
X165619047Y-118907200D01*
X165619047Y-118907200D02*
X165714285Y-118954819D01*
X165714285Y-118954819D02*
X165857142Y-118954819D01*
X165857142Y-118954819D02*
X165952380Y-118907200D01*
X165952380Y-118907200D02*
X165999999Y-118859580D01*
X166619047Y-118954819D02*
X166523809Y-118907200D01*
X166523809Y-118907200D02*
X166476190Y-118811961D01*
X166476190Y-118811961D02*
X166476190Y-117954819D01*
X167142857Y-118954819D02*
X167047619Y-118907200D01*
X167047619Y-118907200D02*
X167000000Y-118859580D01*
X167000000Y-118859580D02*
X166952381Y-118764342D01*
X166952381Y-118764342D02*
X166952381Y-118478628D01*
X166952381Y-118478628D02*
X167000000Y-118383390D01*
X167000000Y-118383390D02*
X167047619Y-118335771D01*
X167047619Y-118335771D02*
X167142857Y-118288152D01*
X167142857Y-118288152D02*
X167285714Y-118288152D01*
X167285714Y-118288152D02*
X167380952Y-118335771D01*
X167380952Y-118335771D02*
X167428571Y-118383390D01*
X167428571Y-118383390D02*
X167476190Y-118478628D01*
X167476190Y-118478628D02*
X167476190Y-118764342D01*
X167476190Y-118764342D02*
X167428571Y-118859580D01*
X167428571Y-118859580D02*
X167380952Y-118907200D01*
X167380952Y-118907200D02*
X167285714Y-118954819D01*
X167285714Y-118954819D02*
X167142857Y-118954819D01*
X168428571Y-118954819D02*
X167857143Y-118954819D01*
X168142857Y-118954819D02*
X168142857Y-117954819D01*
X168142857Y-117954819D02*
X168047619Y-118097676D01*
X168047619Y-118097676D02*
X167952381Y-118192914D01*
X167952381Y-118192914D02*
X167857143Y-118240533D01*
X265622380Y-106954819D02*
X265146190Y-106954819D01*
X265146190Y-106954819D02*
X265146190Y-105954819D01*
X266336666Y-106907200D02*
X266241428Y-106954819D01*
X266241428Y-106954819D02*
X266050952Y-106954819D01*
X266050952Y-106954819D02*
X265955714Y-106907200D01*
X265955714Y-106907200D02*
X265908095Y-106811961D01*
X265908095Y-106811961D02*
X265908095Y-106431009D01*
X265908095Y-106431009D02*
X265955714Y-106335771D01*
X265955714Y-106335771D02*
X266050952Y-106288152D01*
X266050952Y-106288152D02*
X266241428Y-106288152D01*
X266241428Y-106288152D02*
X266336666Y-106335771D01*
X266336666Y-106335771D02*
X266384285Y-106431009D01*
X266384285Y-106431009D02*
X266384285Y-106526247D01*
X266384285Y-106526247D02*
X265908095Y-106621485D01*
X267241428Y-106954819D02*
X267241428Y-105954819D01*
X267241428Y-106907200D02*
X267146190Y-106954819D01*
X267146190Y-106954819D02*
X266955714Y-106954819D01*
X266955714Y-106954819D02*
X266860476Y-106907200D01*
X266860476Y-106907200D02*
X266812857Y-106859580D01*
X266812857Y-106859580D02*
X266765238Y-106764342D01*
X266765238Y-106764342D02*
X266765238Y-106478628D01*
X266765238Y-106478628D02*
X266812857Y-106383390D01*
X266812857Y-106383390D02*
X266860476Y-106335771D01*
X266860476Y-106335771D02*
X266955714Y-106288152D01*
X266955714Y-106288152D02*
X267146190Y-106288152D01*
X267146190Y-106288152D02*
X267241428Y-106335771D01*
X267670000Y-106050057D02*
X267717619Y-106002438D01*
X267717619Y-106002438D02*
X267812857Y-105954819D01*
X267812857Y-105954819D02*
X268050952Y-105954819D01*
X268050952Y-105954819D02*
X268146190Y-106002438D01*
X268146190Y-106002438D02*
X268193809Y-106050057D01*
X268193809Y-106050057D02*
X268241428Y-106145295D01*
X268241428Y-106145295D02*
X268241428Y-106240533D01*
X268241428Y-106240533D02*
X268193809Y-106383390D01*
X268193809Y-106383390D02*
X267622381Y-106954819D01*
X267622381Y-106954819D02*
X268241428Y-106954819D01*
X265622380Y-116979819D02*
X265146190Y-116979819D01*
X265146190Y-116979819D02*
X265146190Y-115979819D01*
X266336666Y-116932200D02*
X266241428Y-116979819D01*
X266241428Y-116979819D02*
X266050952Y-116979819D01*
X266050952Y-116979819D02*
X265955714Y-116932200D01*
X265955714Y-116932200D02*
X265908095Y-116836961D01*
X265908095Y-116836961D02*
X265908095Y-116456009D01*
X265908095Y-116456009D02*
X265955714Y-116360771D01*
X265955714Y-116360771D02*
X266050952Y-116313152D01*
X266050952Y-116313152D02*
X266241428Y-116313152D01*
X266241428Y-116313152D02*
X266336666Y-116360771D01*
X266336666Y-116360771D02*
X266384285Y-116456009D01*
X266384285Y-116456009D02*
X266384285Y-116551247D01*
X266384285Y-116551247D02*
X265908095Y-116646485D01*
X267241428Y-116979819D02*
X267241428Y-115979819D01*
X267241428Y-116932200D02*
X267146190Y-116979819D01*
X267146190Y-116979819D02*
X266955714Y-116979819D01*
X266955714Y-116979819D02*
X266860476Y-116932200D01*
X266860476Y-116932200D02*
X266812857Y-116884580D01*
X266812857Y-116884580D02*
X266765238Y-116789342D01*
X266765238Y-116789342D02*
X266765238Y-116503628D01*
X266765238Y-116503628D02*
X266812857Y-116408390D01*
X266812857Y-116408390D02*
X266860476Y-116360771D01*
X266860476Y-116360771D02*
X266955714Y-116313152D01*
X266955714Y-116313152D02*
X267146190Y-116313152D01*
X267146190Y-116313152D02*
X267241428Y-116360771D01*
X268241428Y-116979819D02*
X267670000Y-116979819D01*
X267955714Y-116979819D02*
X267955714Y-115979819D01*
X267955714Y-115979819D02*
X267860476Y-116122676D01*
X267860476Y-116122676D02*
X267765238Y-116217914D01*
X267765238Y-116217914D02*
X267670000Y-116265533D01*
X265622380Y-86929819D02*
X265146190Y-86929819D01*
X265146190Y-86929819D02*
X265146190Y-85929819D01*
X266336666Y-86882200D02*
X266241428Y-86929819D01*
X266241428Y-86929819D02*
X266050952Y-86929819D01*
X266050952Y-86929819D02*
X265955714Y-86882200D01*
X265955714Y-86882200D02*
X265908095Y-86786961D01*
X265908095Y-86786961D02*
X265908095Y-86406009D01*
X265908095Y-86406009D02*
X265955714Y-86310771D01*
X265955714Y-86310771D02*
X266050952Y-86263152D01*
X266050952Y-86263152D02*
X266241428Y-86263152D01*
X266241428Y-86263152D02*
X266336666Y-86310771D01*
X266336666Y-86310771D02*
X266384285Y-86406009D01*
X266384285Y-86406009D02*
X266384285Y-86501247D01*
X266384285Y-86501247D02*
X265908095Y-86596485D01*
X267241428Y-86929819D02*
X267241428Y-85929819D01*
X267241428Y-86882200D02*
X267146190Y-86929819D01*
X267146190Y-86929819D02*
X266955714Y-86929819D01*
X266955714Y-86929819D02*
X266860476Y-86882200D01*
X266860476Y-86882200D02*
X266812857Y-86834580D01*
X266812857Y-86834580D02*
X266765238Y-86739342D01*
X266765238Y-86739342D02*
X266765238Y-86453628D01*
X266765238Y-86453628D02*
X266812857Y-86358390D01*
X266812857Y-86358390D02*
X266860476Y-86310771D01*
X266860476Y-86310771D02*
X266955714Y-86263152D01*
X266955714Y-86263152D02*
X267146190Y-86263152D01*
X267146190Y-86263152D02*
X267241428Y-86310771D01*
X268146190Y-86263152D02*
X268146190Y-86929819D01*
X267908095Y-85882200D02*
X267670000Y-86596485D01*
X267670000Y-86596485D02*
X268289047Y-86596485D01*
X147642857Y-37669104D02*
X148119047Y-37669104D01*
X147547619Y-37954819D02*
X147880952Y-36954819D01*
X147880952Y-36954819D02*
X148214285Y-37954819D01*
X149023809Y-37954819D02*
X148547619Y-37954819D01*
X148547619Y-37954819D02*
X148547619Y-36954819D01*
X149357143Y-37954819D02*
X149357143Y-36954819D01*
X150357142Y-37954819D02*
X149785714Y-37954819D01*
X150071428Y-37954819D02*
X150071428Y-36954819D01*
X150071428Y-36954819D02*
X149976190Y-37097676D01*
X149976190Y-37097676D02*
X149880952Y-37192914D01*
X149880952Y-37192914D02*
X149785714Y-37240533D01*
X262595237Y-62931009D02*
X262738094Y-62978628D01*
X262738094Y-62978628D02*
X262785713Y-63026247D01*
X262785713Y-63026247D02*
X262833332Y-63121485D01*
X262833332Y-63121485D02*
X262833332Y-63264342D01*
X262833332Y-63264342D02*
X262785713Y-63359580D01*
X262785713Y-63359580D02*
X262738094Y-63407200D01*
X262738094Y-63407200D02*
X262642856Y-63454819D01*
X262642856Y-63454819D02*
X262261904Y-63454819D01*
X262261904Y-63454819D02*
X262261904Y-62454819D01*
X262261904Y-62454819D02*
X262595237Y-62454819D01*
X262595237Y-62454819D02*
X262690475Y-62502438D01*
X262690475Y-62502438D02*
X262738094Y-62550057D01*
X262738094Y-62550057D02*
X262785713Y-62645295D01*
X262785713Y-62645295D02*
X262785713Y-62740533D01*
X262785713Y-62740533D02*
X262738094Y-62835771D01*
X262738094Y-62835771D02*
X262690475Y-62883390D01*
X262690475Y-62883390D02*
X262595237Y-62931009D01*
X262595237Y-62931009D02*
X262261904Y-62931009D01*
X263690475Y-62788152D02*
X263690475Y-63454819D01*
X263261904Y-62788152D02*
X263261904Y-63311961D01*
X263261904Y-63311961D02*
X263309523Y-63407200D01*
X263309523Y-63407200D02*
X263404761Y-63454819D01*
X263404761Y-63454819D02*
X263547618Y-63454819D01*
X263547618Y-63454819D02*
X263642856Y-63407200D01*
X263642856Y-63407200D02*
X263690475Y-63359580D01*
X264071428Y-62788152D02*
X264595237Y-62788152D01*
X264595237Y-62788152D02*
X264071428Y-63454819D01*
X264071428Y-63454819D02*
X264595237Y-63454819D01*
X264880952Y-62788152D02*
X265404761Y-62788152D01*
X265404761Y-62788152D02*
X264880952Y-63454819D01*
X264880952Y-63454819D02*
X265404761Y-63454819D01*
X266166666Y-63407200D02*
X266071428Y-63454819D01*
X266071428Y-63454819D02*
X265880952Y-63454819D01*
X265880952Y-63454819D02*
X265785714Y-63407200D01*
X265785714Y-63407200D02*
X265738095Y-63311961D01*
X265738095Y-63311961D02*
X265738095Y-62931009D01*
X265738095Y-62931009D02*
X265785714Y-62835771D01*
X265785714Y-62835771D02*
X265880952Y-62788152D01*
X265880952Y-62788152D02*
X266071428Y-62788152D01*
X266071428Y-62788152D02*
X266166666Y-62835771D01*
X266166666Y-62835771D02*
X266214285Y-62931009D01*
X266214285Y-62931009D02*
X266214285Y-63026247D01*
X266214285Y-63026247D02*
X265738095Y-63121485D01*
X266642857Y-63454819D02*
X266642857Y-62788152D01*
X266642857Y-62978628D02*
X266690476Y-62883390D01*
X266690476Y-62883390D02*
X266738095Y-62835771D01*
X266738095Y-62835771D02*
X266833333Y-62788152D01*
X266833333Y-62788152D02*
X266928571Y-62788152D01*
X267785714Y-63454819D02*
X267214286Y-63454819D01*
X267500000Y-63454819D02*
X267500000Y-62454819D01*
X267500000Y-62454819D02*
X267404762Y-62597676D01*
X267404762Y-62597676D02*
X267309524Y-62692914D01*
X267309524Y-62692914D02*
X267214286Y-62740533D01*
D11*
%TO.C,R3*%
X242460000Y-96500000D02*
X243230000Y-96500000D01*
X243230000Y-95130000D02*
X243230000Y-97870000D01*
X243230000Y-97870000D02*
X249770000Y-97870000D01*
X249770000Y-95130000D02*
X243230000Y-95130000D01*
X249770000Y-97870000D02*
X249770000Y-95130000D01*
X250540000Y-96500000D02*
X249770000Y-96500000D01*
%TO.C,Led5*%
X262290000Y-77830000D02*
X262290000Y-75170000D01*
X259690000Y-77830000D02*
X262290000Y-77830000D01*
X259690000Y-77830000D02*
X259690000Y-75170000D01*
X259690000Y-75170000D02*
X262290000Y-75170000D01*
X257090000Y-76500000D02*
X257090000Y-75170000D01*
X257090000Y-75170000D02*
X258420000Y-75170000D01*
%TO.C,RI1*%
X215170000Y-118350000D02*
X215170000Y-82730000D01*
X215170000Y-120950000D02*
X215170000Y-119620000D01*
X216500000Y-120950000D02*
X215170000Y-120950000D01*
X217830000Y-82730000D02*
X215170000Y-82730000D01*
X217830000Y-118350000D02*
X215170000Y-118350000D01*
X217830000Y-118350000D02*
X217830000Y-82730000D01*
%TO.C,R2*%
X242460000Y-106500000D02*
X243230000Y-106500000D01*
X243230000Y-105130000D02*
X243230000Y-107870000D01*
X243230000Y-107870000D02*
X249770000Y-107870000D01*
X249770000Y-105130000D02*
X243230000Y-105130000D01*
X249770000Y-107870000D02*
X249770000Y-105130000D01*
X250540000Y-106500000D02*
X249770000Y-106500000D01*
%TO.C,R4*%
X242460000Y-86500000D02*
X243230000Y-86500000D01*
X243230000Y-85130000D02*
X243230000Y-87870000D01*
X243230000Y-87870000D02*
X249770000Y-87870000D01*
X249770000Y-85130000D02*
X243230000Y-85130000D01*
X249770000Y-87870000D02*
X249770000Y-85130000D01*
X250540000Y-86500000D02*
X249770000Y-86500000D01*
%TO.C,BT1*%
X124450000Y-43645000D02*
X144550000Y-43645000D01*
X124450000Y-121645000D02*
X124450000Y-43645000D01*
X144550000Y-43645000D02*
X144550000Y-121645000D01*
X144550000Y-121645000D02*
X124450000Y-121645000D01*
%TO.C,R_BaseT1*%
X220380000Y-45500000D02*
X221150000Y-45500000D01*
X221150000Y-44130000D02*
X221150000Y-46870000D01*
X221150000Y-46870000D02*
X227690000Y-46870000D01*
X227690000Y-44130000D02*
X221150000Y-44130000D01*
X227690000Y-46870000D02*
X227690000Y-44130000D01*
X228460000Y-45500000D02*
X227690000Y-45500000D01*
%TO.C,R5*%
X242460000Y-76500000D02*
X243230000Y-76500000D01*
X243230000Y-75130000D02*
X243230000Y-77870000D01*
X243230000Y-77870000D02*
X249770000Y-77870000D01*
X249770000Y-75130000D02*
X243230000Y-75130000D01*
X249770000Y-77870000D02*
X249770000Y-75130000D01*
X250540000Y-76500000D02*
X249770000Y-76500000D01*
%TO.C,SUV1*%
X245630000Y-129170000D02*
X245630000Y-131830000D01*
X250770000Y-129170000D02*
X245630000Y-129170000D01*
X250770000Y-129170000D02*
X250770000Y-131830000D01*
X250770000Y-131830000D02*
X245630000Y-131830000D01*
X253370000Y-130500000D02*
X253370000Y-131830000D01*
X253370000Y-131830000D02*
X252040000Y-131830000D01*
%TO.C,R1*%
X242460000Y-116500000D02*
X243230000Y-116500000D01*
X243230000Y-115130000D02*
X243230000Y-117870000D01*
X243230000Y-117870000D02*
X249770000Y-117870000D01*
X249770000Y-115130000D02*
X243230000Y-115130000D01*
X249770000Y-117870000D02*
X249770000Y-115130000D01*
X250540000Y-116500000D02*
X249770000Y-116500000D01*
%TO.C,D1*%
X248680000Y-46500000D02*
X249700000Y-46500000D01*
X249700000Y-45030000D02*
X249700000Y-47970000D01*
X249700000Y-47970000D02*
X255140000Y-47970000D01*
X254120000Y-47970000D02*
X254120000Y-45030000D01*
X254240000Y-47970000D02*
X254240000Y-45030000D01*
X254360000Y-47970000D02*
X254360000Y-45030000D01*
X255140000Y-45030000D02*
X249700000Y-45030000D01*
X255140000Y-47970000D02*
X255140000Y-45030000D01*
X256160000Y-46500000D02*
X255140000Y-46500000D01*
%TO.C,Pin_Extra1*%
X174650000Y-53170000D02*
X175980000Y-53170000D01*
X174650000Y-54500000D02*
X174650000Y-53170000D01*
X177250000Y-53170000D02*
X228110000Y-53170000D01*
X177250000Y-55830000D02*
X177250000Y-53170000D01*
X177250000Y-55830000D02*
X228110000Y-55830000D01*
X228110000Y-55830000D02*
X228110000Y-53170000D01*
%TO.C,LE1*%
X192330000Y-85330000D02*
X192330000Y-120950000D01*
X192330000Y-82730000D02*
X192330000Y-84060000D01*
X191000000Y-82730000D02*
X192330000Y-82730000D01*
X189670000Y-120950000D02*
X192330000Y-120950000D01*
X189670000Y-85330000D02*
X192330000Y-85330000D01*
X189670000Y-85330000D02*
X189670000Y-120950000D01*
%TO.C,Q1*%
X242730000Y-59900000D02*
G75*
G02*
X244568478Y-64338478I0J-2600000D01*
G01*
X240891522Y-64338478D02*
G75*
G02*
X242730000Y-59899999I1838478J1838478D01*
G01*
X240930000Y-64350000D02*
X244530000Y-64350000D01*
%TO.C,Led3*%
X257090000Y-95170000D02*
X258420000Y-95170000D01*
X257090000Y-96500000D02*
X257090000Y-95170000D01*
X259690000Y-95170000D02*
X262290000Y-95170000D01*
X259690000Y-97830000D02*
X259690000Y-95170000D01*
X259690000Y-97830000D02*
X262290000Y-97830000D01*
X262290000Y-97830000D02*
X262290000Y-95170000D01*
%TO.C,Modulo1*%
X152800000Y-135620000D02*
X178200000Y-135620000D01*
X178200000Y-120380000D01*
X152800000Y-120380000D01*
X152800000Y-135620000D01*
%TO.C,Led2*%
X257090000Y-105170000D02*
X258420000Y-105170000D01*
X257090000Y-106500000D02*
X257090000Y-105170000D01*
X259690000Y-105170000D02*
X262290000Y-105170000D01*
X259690000Y-107830000D02*
X259690000Y-105170000D01*
X259690000Y-107830000D02*
X262290000Y-107830000D01*
X262290000Y-107830000D02*
X262290000Y-105170000D01*
%TO.C,Led1*%
X257090000Y-115170000D02*
X258420000Y-115170000D01*
X257090000Y-116500000D02*
X257090000Y-115170000D01*
X259690000Y-115170000D02*
X262290000Y-115170000D01*
X259690000Y-117830000D02*
X259690000Y-115170000D01*
X259690000Y-117830000D02*
X262290000Y-117830000D01*
X262290000Y-117830000D02*
X262290000Y-115170000D01*
%TO.C,Led4*%
X257090000Y-85145000D02*
X258420000Y-85145000D01*
X257090000Y-86475000D02*
X257090000Y-85145000D01*
X259690000Y-85145000D02*
X262290000Y-85145000D01*
X259690000Y-87805000D02*
X259690000Y-85145000D01*
X259690000Y-87805000D02*
X262290000Y-87805000D01*
X262290000Y-87805000D02*
X262290000Y-85145000D01*
%TO.C,ALI1*%
X150820000Y-50360000D02*
X150820000Y-39640000D01*
X152145000Y-46069000D02*
X152239000Y-45976000D01*
X152170000Y-50050000D02*
X152170000Y-49550000D01*
X152350000Y-46275000D02*
X152409000Y-46216000D01*
X154430000Y-43784000D02*
X154489000Y-43726000D01*
X154600000Y-44024000D02*
X154694000Y-43931000D01*
X154670000Y-49550000D02*
X152170000Y-49550000D01*
X154670000Y-50050000D02*
X152170000Y-50050000D01*
X154670000Y-50050000D02*
X154670000Y-49550000D01*
X157250000Y-50050000D02*
X157250000Y-49550000D01*
X159750000Y-49550000D02*
X157250000Y-49550000D01*
X159750000Y-50050000D02*
X157250000Y-50050000D01*
X159750000Y-50050000D02*
X159750000Y-49550000D01*
X161100000Y-39640000D02*
X150820000Y-39640000D01*
X161100000Y-40300000D02*
X150820000Y-40300000D01*
X161100000Y-42500000D02*
X150820000Y-42500000D01*
X161100000Y-48300000D02*
X150820000Y-48300000D01*
X161100000Y-50360000D02*
X150820000Y-50360000D01*
X161100000Y-50360000D02*
X161100000Y-39640000D01*
X161340000Y-39400000D02*
X160740000Y-39400000D01*
X161340000Y-40240000D02*
X161340000Y-39400000D01*
X157016047Y-45789089D02*
G75*
G02*
X157016000Y-44211000I1483953J789089D01*
G01*
X157711288Y-43516648D02*
G75*
G02*
X158500000Y-43320000I788712J-1483352D01*
G01*
X158470617Y-43319550D02*
G75*
G02*
X159289000Y-43516000I29385J-1680445D01*
G01*
X159289089Y-46483953D02*
G75*
G02*
X157711000Y-46484000I-789089J1483948D01*
G01*
X159983953Y-44210911D02*
G75*
G02*
X159984000Y-45789000I-1483948J-789089D01*
G01*
X155100000Y-45000000D02*
G75*
G02*
X151740000Y-45000000I-1680000J0D01*
G01*
X151740000Y-45000000D02*
G75*
G02*
X155100000Y-45000000I1680000J0D01*
G01*
%TO.C,Buzzer1*%
X255130000Y-61670000D02*
X255130000Y-64330000D01*
X257730000Y-61670000D02*
X255130000Y-61670000D01*
X257730000Y-61670000D02*
X257730000Y-64330000D01*
X257730000Y-64330000D02*
X255130000Y-64330000D01*
X260330000Y-63000000D02*
X260330000Y-64330000D01*
X260330000Y-64330000D02*
X259000000Y-64330000D01*
%TD*%
M02*
